<?xml version="1.0" standalone="no"?>
<!DOCTYPE svg PUBLIC "-//W3C//DTD SVG 20010904//EN"
 "http://www.w3.org/TR/2001/REC-SVG-20010904/DTD/svg10.dtd">
<svg version="1.0" xmlns="http://www.w3.org/2000/svg"
 width="433.000000pt" height="577.000000pt" viewBox="0 0 433.000000 577.000000"
 preserveAspectRatio="xMidYMid meet">

<g transform="translate(0.000000,577.000000) scale(0.100000,-0.100000)"
fill="#000000" stroke="none">
<path d="M1603 5348 c-74 -11 -139 -44 -198 -101 l-50 -48 -55 21 c-69 27
-187 36 -263 21 -188 -40 -350 -207 -387 -400 -63 -334 130 -843 443 -1168
l40 -42 -45 -52 -44 -51 -70 -3 c-221 -8 -371 -221 -308 -436 19 -66 64 -138
110 -179 38 -33 125 -80 148 -80 25 0 26 -15 6 -95 -11 -43 -20 -98 -20 -122
0 -68 29 -167 66 -225 l33 -53 -35 -3 c-33 -3 -35 -5 -29 -32 4 -16 1 -54 -5
-85 -18 -86 -15 -108 21 -178 l33 -66 -13 -68 c-8 -37 -16 -93 -18 -123 -4
-56 -5 -54 64 -183 14 -26 14 -34 -2 -83 -12 -39 -15 -69 -10 -107 8 -66 25
-131 31 -124 3 3 0 23 -6 44 -10 32 -9 46 4 76 8 20 20 37 25 37 17 0 41 56
41 95 0 47 -28 100 -79 150 -54 51 -65 93 -46 165 23 86 19 137 -15 195 -40
68 -38 89 5 41 61 -69 73 -169 30 -251 -27 -49 -29 -73 -3 -33 48 75 51 167 7
257 -35 71 -35 98 0 175 17 39 24 46 48 46 34 -1 63 -21 63 -44 0 -47 38 -163
85 -261 53 -109 54 -111 192 -239 113 -106 142 -138 159 -180 23 -56 98 -207
137 -275 30 -53 24 -87 -33 -171 -43 -64 -73 -120 -67 -126 2 -2 12 14 22 36
24 53 53 80 65 60 7 -12 12 -11 29 4 43 39 19 -4 -34 -59 -30 -32 -62 -77 -72
-101 -10 -24 -21 -44 -26 -44 -11 0 18 -54 38 -70 9 -8 27 -34 40 -59 13 -25
55 -77 94 -116 73 -71 95 -83 41 -21 -37 42 -90 139 -90 164 0 23 -78 114 -90
107 -5 -3 -5 9 0 26 10 34 38 73 95 133 20 21 44 54 52 74 l15 37 41 -50 c175
-211 369 -352 529 -386 29 -6 59 -16 67 -22 49 -40 97 -58 127 -47 21 8 31 6
57 -14 98 -74 290 -87 417 -29 36 17 76 42 90 57 14 15 54 44 90 63 36 20 80
50 99 67 34 31 102 157 100 186 0 8 -5 2 -11 -15 -23 -63 -69 -116 -122 -141
-30 -14 -52 -19 -54 -13 -3 6 -10 5 -20 -3 -12 -10 -14 -10 -8 0 4 6 2 12 -3
12 -6 0 -11 -4 -11 -9 0 -5 -6 -11 -14 -14 -9 -4 -6 9 10 36 13 23 24 49 24
57 -1 10 -4 9 -12 -5 -6 -11 -22 -33 -37 -50 -17 -19 -19 -24 -6 -15 18 13 19
13 8 0 -22 -28 -71 -22 -162 20 -72 33 -99 40 -148 40 -72 0 -141 -19 -195
-55 -36 -24 -41 -25 -57 -11 -23 21 -118 22 -140 2 -14 -13 -25 -12 -84 9
-163 57 -345 207 -505 416 -7 9 -21 50 -31 92 -22 85 -55 155 -76 164 -8 3
-13 9 -10 13 3 5 -9 20 -26 34 -28 24 -67 111 -55 123 11 12 59 -35 88 -86
158 -280 405 -471 708 -547 102 -26 336 -26 430 -1 188 50 345 146 455 277 75
89 96 110 110 110 18 0 55 48 55 70 0 13 11 20 38 25 51 9 122 41 150 68 33
31 66 90 92 167 12 36 28 71 34 78 7 7 33 14 59 15 40 2 44 4 30 14 -9 7 -15
14 -12 16 10 8 89 27 115 28 29 0 29 0 5 10 -14 5 -45 7 -70 3 -43 -6 -45 -5
-30 10 24 25 115 32 163 12 22 -9 41 -14 44 -11 7 7 -60 33 -116 46 -34 7 -61
7 -93 -1 -24 -6 -66 -16 -94 -21 -27 -5 -72 -14 -100 -20 -73 -14 -143 -50
-203 -104 -63 -57 -97 -113 -113 -183 -7 -36 -18 -58 -34 -68 -14 -9 -30 -37
-41 -71 -31 -99 -162 -227 -301 -293 -253 -121 -579 -100 -838 52 -88 52 -287
229 -273 243 4 4 47 -10 97 -30 137 -55 255 -78 396 -78 66 0 149 5 185 12
133 25 285 122 363 231 120 168 169 275 171 373 1 58 1 58 -51 107 l-51 48 48
124 c105 265 149 476 157 748 7 207 -7 352 -44 460 -14 41 -26 80 -27 85 -1 6
-12 28 -23 51 l-22 41 44 89 c97 195 151 463 102 499 -44 32 -158 -36 -314
-188 -94 -92 -127 -118 -140 -112 -15 5 0 24 80 101 152 145 314 244 375 229
15 -4 25 -15 29 -35 3 -17 9 -30 14 -30 24 0 -16 68 -44 75 -53 14 -196 -66
-331 -184 -38 -33 -73 -58 -78 -55 -5 3 -7 2 -6 -3 2 -4 1 -8 -2 -8 -12 0 -37
-31 -32 -39 3 -5 -3 -6 -12 -3 -13 5 -17 3 -13 -6 8 -20 -53 -12 -73 9 -14 15
-13 16 4 10 19 -7 56 18 56 37 0 6 -8 0 -19 -12 -12 -14 -25 -19 -36 -15 -10
4 -20 1 -25 -6 -6 -9 -12 -10 -26 -1 -18 10 -18 10 0 11 20 0 20 0 0 15 -10 8
-14 15 -7 15 7 0 10 7 7 15 -5 11 -2 13 12 8 13 -5 15 -3 9 7 -6 10 -4 12 8 7
11 -4 14 -2 11 8 -12 31 180 155 336 217 146 58 231 46 266 -37 20 -49 19 -86
-3 -79 -15 5 -16 4 -3 -5 13 -10 13 -12 0 -21 -8 -5 -10 -10 -3 -10 19 0 -22
-166 -113 -452 -37 -116 -41 -137 -20 -98 32 58 148 456 167 570 22 134 -60
211 -196 183 -118 -25 -308 -126 -417 -222 -25 -23 -48 -41 -51 -41 -2 0 13
77 35 172 62 277 61 348 -3 403 -24 19 -42 25 -80 25 -117 0 -349 -68 -512
-150 l-98 -49 -9 25 c-22 56 -30 162 -27 355 2 191 0 208 -20 259 -13 30 -36
71 -52 90 -60 73 -180 114 -288 98z m136 -149 c86 -52 102 -107 111 -393 7
-215 19 -294 49 -330 8 -10 0 -21 -36 -46 -149 -107 -323 -322 -428 -531 -24
-46 -29 -51 -36 -34 -4 11 -8 55 -8 98 -1 78 0 80 68 215 109 217 151 364 151
523 0 149 -39 280 -110 376 l-40 52 33 27 c76 65 181 83 246 43z m-516 -90
c21 -5 40 -16 43 -24 3 -7 -10 -47 -30 -89 -87 -182 -127 -361 -132 -590 l-3
-158 -43 -56 c-60 -78 -67 -92 -68 -132 l0 -35 -20 25 c-37 46 -118 214 -149
308 -144 433 -18 760 294 762 39 0 87 -5 108 -11z m230 -208 c31 -63 32 -70
32 -186 0 -131 -17 -210 -77 -353 l-31 -75 -36 39 c-20 22 -51 58 -70 80 l-34
39 11 100 c12 110 65 307 107 398 26 56 28 58 46 41 11 -10 34 -47 52 -83z
m1220 -221 c59 -47 60 -123 1 -375 -20 -88 -42 -186 -48 -218 -6 -32 -15 -55
-19 -51 -4 4 -18 8 -31 9 -20 0 -24 -4 -21 -25 1 -14 6 -23 11 -20 5 3 8 8 6
13 -3 11 27 9 65 -5 18 -7 33 -18 33 -25 0 -7 5 -13 11 -13 5 0 7 5 3 11 -12
20 40 2 106 -37 33 -19 60 -39 60 -44 0 -6 6 -10 14 -10 42 0 196 -179 255
-297 60 -120 72 -187 78 -418 7 -256 -8 -426 -40 -456 -12 -10 -27 -19 -34
-19 -7 0 -13 -6 -13 -12 0 -7 -24 -30 -54 -51 -88 -64 -146 -129 -167 -189
-11 -33 -14 -57 -8 -62 5 -6 9 -21 9 -34 0 -45 63 -145 137 -218 63 -61 73
-76 73 -106 0 -33 -3 -36 -45 -48 -40 -11 -52 -10 -111 9 -51 18 -68 20 -80
11 -21 -19 -17 -38 15 -71 27 -27 70 -42 56 -19 -11 18 11 11 30 -10 9 -10 15
-26 12 -34 -3 -8 -1 -17 6 -20 9 -3 8 -7 -2 -14 -9 -7 -10 -12 -2 -16 18 -12
13 -26 -21 -58 -49 -46 -95 -72 -178 -103 -143 -53 -421 -44 -547 16 -73 35
-147 145 -213 315 -40 105 -75 160 -118 189 -82 54 -147 39 -177 -40 -38 -97
-1 -200 109 -310 81 -81 162 -127 307 -176 83 -28 112 -33 258 -40 258 -12
411 21 541 116 43 31 50 34 50 18 0 -25 -36 -73 -113 -151 -165 -169 -443
-222 -736 -140 -351 97 -679 355 -851 670 -22 40 -40 76 -40 80 0 4 28 6 63 4
34 -1 67 1 73 6 11 8 15 -1 29 -52 10 -40 30 -93 46 -120 4 -8 19 -35 31 -60
13 -25 31 -54 41 -65 10 -10 15 -25 13 -31 -3 -7 4 -14 15 -17 11 -3 19 -14
19 -26 0 -13 6 -21 16 -21 10 0 14 -6 10 -15 -3 -9 0 -15 10 -15 18 0 44 -23
44 -39 0 -6 7 -11 16 -11 9 0 18 -9 21 -20 3 -11 12 -20 19 -20 8 0 17 -6 20
-14 3 -8 14 -16 25 -19 11 -3 19 -14 19 -27 0 -18 3 -20 14 -11 11 9 16 9 23
-1 4 -7 25 -22 46 -32 20 -11 37 -23 37 -28 0 -4 9 -8 19 -8 11 0 26 -7 34
-15 8 -8 17 -12 20 -9 3 3 22 -4 43 -15 21 -12 44 -21 51 -21 6 0 24 -5 40
-12 15 -6 39 -13 53 -15 14 -2 26 -8 28 -12 1 -4 16 -5 32 -3 17 2 30 0 30 -4
0 -5 46 -10 103 -10 56 -1 89 0 72 2 -16 2 -73 9 -125 15 -241 28 -451 130
-626 304 -117 116 -190 231 -240 379 -24 70 -24 86 2 86 8 0 42 13 77 29 232
106 382 356 349 583 -15 101 -52 176 -120 240 -48 45 -54 55 -51 87 1 20 3 83
3 141 1 93 -2 111 -25 161 -15 31 -43 75 -64 97 -31 35 -35 44 -25 61 6 12 13
21 15 21 3 0 34 -12 69 -26 80 -32 131 -30 158 6 20 28 22 53 12 147 -12 117
-7 122 187 177 161 46 347 77 335 57 -4 -5 -2 -12 4 -16 5 -3 10 1 10 9 0 19
16 21 24 4 5 -10 7 -10 12 0 3 6 10 12 15 12 6 0 7 -4 4 -10 -3 -5 -1 -10 4
-10 6 0 11 5 11 10 0 6 9 10 20 10 11 0 20 -5 20 -11 0 -6 5 -9 12 -7 11 4 18
23 22 66 1 12 8 28 16 35 10 10 11 7 6 -15 -3 -14 -9 -34 -13 -44 -4 -11 -3
-15 4 -11 17 11 91 205 113 297 23 98 26 188 7 214 -11 16 -24 18 -70 14 -170
-14 -511 -275 -662 -506 l-60 -93 -5 38 c-3 21 -9 43 -13 50 -5 8 43 63 135
156 212 213 414 356 557 392 94 25 139 7 155 -59 4 -15 9 -26 12 -23 14 13
-19 78 -46 92 -39 20 -75 19 -146 -5 -147 -50 -314 -171 -524 -378 -94 -92
-170 -160 -178 -157 -7 2 -34 -3 -60 -13 -32 -12 -59 -16 -86 -11 -28 4 -44 2
-54 -7 -7 -8 -18 -14 -23 -14 -5 0 -9 -5 -9 -12 0 -7 -15 -36 -32 -66 -24 -38
-38 -52 -50 -48 -25 6 -32 -10 -11 -24 17 -10 16 -10 -2 -8 -14 2 -20 -2 -19
-14 1 -10 -5 -18 -13 -18 -10 0 -13 -6 -8 -17 4 -14 3 -15 -5 -7 -31 31 152
325 292 470 183 189 470 344 748 404 116 25 171 25 203 0z m-35 -172 c2 -21 0
-26 -11 -23 -7 3 -26 1 -40 -4 -41 -16 -32 2 11 21 20 10 29 16 20 13 -10 -2
-18 1 -19 8 0 9 -2 9 -6 0 -7 -18 -23 -16 -23 3 0 11 8 14 33 12 27 -2 33 -8
35 -30z m-3 -95 c-11 -77 -37 -173 -46 -173 -5 0 -8 -3 -8 -7 3 -20 -2 -41
-16 -59 -12 -17 -12 -13 1 30 8 28 12 58 8 68 -3 11 0 18 7 18 7 0 9 3 6 7 -4
3 -16 -2 -27 -12 -11 -10 -20 -15 -20 -11 0 11 34 42 55 50 l20 8 -20 8 c-11
4 -27 5 -35 3 -10 -3 -9 0 4 11 10 8 15 20 10 27 -5 8 -2 11 8 7 11 -5 15 1
14 20 -1 18 4 26 13 24 8 -2 11 3 8 13 -4 9 -1 15 9 15 14 0 15 -8 9 -47z
m-241 0 c42 -63 56 -118 56 -217 0 -50 -5 -107 -10 -128 l-10 -36 -92 -1 c-64
-1 -94 3 -100 11 -5 9 -8 7 -8 -6 0 -15 -6 -17 -30 -14 -16 2 -31 0 -34 -6 -2
-6 -11 -2 -21 9 -15 18 -16 18 -11 1 5 -15 2 -17 -14 -13 -11 3 -20 1 -20 -5
0 -5 -9 -6 -20 -3 -11 4 -20 2 -20 -4 0 -6 -7 -7 -17 -4 -11 5 -14 3 -8 -6 5
-10 2 -11 -14 -6 -13 4 -21 2 -21 -5 0 -7 -8 -9 -20 -5 -11 4 -20 2 -20 -4 0
-17 -17 -13 -24 6 -5 11 0 22 11 31 10 7 17 21 16 30 -1 9 0 11 3 5 7 -15 34
-17 34 -3 0 6 -9 19 -20 30 -19 19 -19 19 0 33 11 8 17 17 13 21 -4 4 1 4 12
0 15 -6 17 -4 12 10 -5 14 -3 17 8 12 8 -3 15 -1 15 5 0 6 6 9 13 6 10 -4 13
2 10 21 -3 24 -2 24 6 7 8 -17 10 -16 10 12 1 27 7 34 53 57 29 14 47 26 40
26 -7 0 -12 5 -12 11 0 5 4 8 9 5 5 -3 11 4 15 17 3 13 9 18 13 12 12 -15 34
-17 32 -3 -3 26 1 39 11 33 6 -3 10 1 10 9 0 19 16 21 24 4 3 -8 4 -6 3 4 -2
14 65 75 85 77 4 1 19 -16 32 -36z m-1115 -33 l16 -24 -33 19 c-31 18 -35 19
-45 4 -10 -13 -15 -14 -24 -4 -9 10 -9 15 0 24 19 19 68 9 86 -19z m95 -114
c9 -19 16 -42 15 -53 0 -10 -7 0 -15 21 -8 21 -19 45 -25 52 -7 9 -8 14 -1 14
5 0 17 -15 26 -34z m-61 -22 c16 -45 11 -84 -12 -84 -9 0 -21 58 -21 103 0 40
14 33 33 -19z m1917 12 c0 -3 -4 -8 -10 -11 -5 -3 -10 -1 -10 4 0 6 5 11 10
11 6 0 10 -2 10 -4z m13 -97 c-2 -80 -22 -163 -38 -157 -5 1 -8 8 -6 13 2 6 5
24 6 42 0 17 7 39 15 48 12 14 10 17 -9 22 -14 4 -18 8 -11 13 6 4 12 13 13
21 2 8 6 19 10 26 4 6 0 18 -8 26 -11 12 -12 17 -2 20 27 11 32 -2 30 -74z
m-1884 -39 c-1 -95 -6 -80 -12 30 -2 47 0 76 4 65 4 -11 8 -54 8 -95z m1731
28 c43 -71 18 -228 -51 -311 l-31 -38 -24 22 c-13 12 -21 26 -17 32 3 6 1 7
-5 3 -7 -4 -12 -2 -12 3 0 6 -6 11 -13 11 -21 0 -70 59 -63 77 5 13 4 14 -8 4
-8 -7 -17 -8 -20 -3 -8 13 18 34 29 24 5 -4 5 1 2 11 -5 13 0 21 18 29 13 6
22 14 20 18 -4 6 141 150 151 150 2 0 13 -15 24 -32z m-1954 -76 c8 -39 23
-95 34 -126 10 -31 15 -56 10 -56 -5 0 -12 5 -15 10 -4 6 -10 8 -15 5 -5 -3
-11 -1 -15 5 -3 5 -11 10 -17 10 -6 0 -5 -7 3 -17 8 -10 -4 -3 -26 15 -22 17
-45 32 -51 32 -15 0 -26 28 -14 35 6 4 10 0 10 -7 0 -7 14 -21 30 -30 17 -9
30 -16 30 -14 0 2 -16 21 -35 42 -59 65 -38 63 25 -3 75 -77 79 -68 5 12 -30
33 -55 62 -55 65 0 16 70 103 77 96 3 -2 11 -36 19 -74z m674 -59 c0 -53 -11
-113 -20 -108 -8 5 -6 -149 4 -190 6 -29 6 -29 -5 -5 -20 47 -24 174 -5 220
14 35 20 110 9 110 -2 0 -15 -7 -28 -16 -22 -14 -25 -15 -25 -1 0 17 14 25 48
26 19 1 22 -4 22 -36z m-155 7 c-3 -5 -13 -10 -21 -10 -8 0 -14 -5 -14 -10 0
-11 -22 -36 -54 -60 -20 -15 -20 -15 0 19 10 18 30 42 43 52 25 20 57 26 46 9z
m182 -22 c-3 -7 -5 -2 -5 12 0 14 2 19 5 13 2 -7 2 -19 0 -25z m-209 -56 c-23
-22 -45 -38 -48 -35 -3 2 9 17 27 33 17 16 28 32 25 36 -4 4 -2 4 5 0 6 -3 15
-1 18 5 4 5 9 8 12 6 2 -3 -15 -23 -39 -45z m138 -23 c-15 -53 -16 -72 -5
-151 11 -79 10 -91 -4 -105 -14 -15 -21 -14 -76 7 -34 12 -61 28 -61 34 0 6 9
26 21 45 11 18 18 35 16 37 -2 3 -15 -16 -28 -41 -14 -27 -31 -45 -41 -45 -24
0 -58 35 -58 59 0 10 -8 22 -17 26 -16 6 -15 8 7 25 14 11 31 20 38 20 8 0 10
5 6 12 -5 8 -2 9 9 5 13 -5 17 -1 17 14 0 11 5 17 10 14 6 -3 10 -1 10 5 0 21
29 42 50 35 12 -4 20 -2 20 5 0 6 5 10 11 8 7 -2 28 11 47 29 19 18 37 31 40
28 3 -2 -3 -32 -12 -66z m-46 56 c0 -2 -10 -9 -22 -15 -22 -11 -22 -10 -4 4
21 17 26 19 26 11z m1483 -10 c-3 -9 -8 -14 -10 -11 -3 3 -2 9 2 15 9 16 15
13 8 -4z m-1273 -5 c0 -5 -4 -10 -10 -10 -5 0 -10 5 -10 10 0 6 5 10 10 10 6
0 10 -4 10 -10z m1270 -24 c0 -3 -4 -8 -10 -11 -5 -3 -10 -1 -10 4 0 6 5 11
10 11 6 0 10 -2 10 -4z m-30 -85 c-13 -24 -31 -37 -28 -19 3 11 27 37 36 38 1
0 -2 -9 -8 -19z m-33 -77 c-9 -9 -28 6 -21 18 4 6 10 6 17 -1 6 -6 8 -13 4
-17z m-1681 -3 c-4 -5 2 -7 13 -4 11 3 27 -4 40 -18 25 -27 26 -36 7 -36 -8 0
-12 6 -9 12 2 7 -3 15 -12 19 -22 8 -60 -35 -79 -90 -16 -46 -12 -62 4 -19 5
14 16 25 24 25 21 0 120 -70 150 -106 63 -77 103 -208 90 -296 -11 -71 -19
-76 -45 -30 -13 23 -30 42 -36 42 -7 0 -13 6 -13 13 0 7 -9 19 -19 27 -11 7
-18 17 -15 22 3 4 -4 8 -15 8 -11 0 -24 7 -29 16 -5 9 -11 15 -13 13 -2 -1
-41 16 -86 38 -102 51 -210 77 -303 71 -39 -2 -70 -1 -70 3 0 14 60 88 101
122 38 33 143 77 184 77 7 0 22 16 34 36 13 21 26 32 33 28 7 -4 8 -3 4 4 -12
19 3 32 35 32 17 0 28 -4 25 -9z m1658 -43 c-22 -44 -24 -45 -34 -28 -13 20
-12 33 0 25 9 -6 14 8 11 28 0 4 8 7 19 7 20 0 20 -1 4 -32z m-1624 -8 c0 -5
-7 -10 -16 -10 -8 0 -12 5 -9 10 3 6 10 10 16 10 5 0 9 -4 9 -10z m337 -32
c-3 -8 -6 -5 -6 6 -1 11 2 17 5 13 3 -3 4 -12 1 -19z m-302 -28 c-3 -5 -10
-10 -16 -10 -5 0 -9 5 -9 10 0 6 7 10 16 10 8 0 12 -4 9 -10z m55 -7 c0 -5 -5
-15 -10 -23 -8 -12 -10 -11 -10 8 0 12 5 22 10 22 6 0 10 -3 10 -7z m-550
-151 c0 -4 -20 -30 -45 -57 -29 -32 -44 -57 -41 -68 2 -10 -16 -60 -40 -112
-41 -86 -48 -95 -73 -95 -18 0 -46 17 -87 52 l-59 51 66 -69 c85 -88 92 -102
79 -156 -5 -24 -9 -68 -8 -98 1 -54 1 -54 8 18 11 98 17 120 38 126 21 7 206
-57 195 -67 -4 -4 7 -13 25 -19 17 -7 33 -21 36 -31 3 -13 10 -17 20 -14 9 4
21 -2 30 -15 8 -11 19 -17 25 -14 5 4 12 2 16 -4 7 -11 -73 -64 -122 -81 -55
-18 -170 -7 -228 21 -111 54 -185 166 -193 294 -5 85 7 133 50 205 35 57 105
114 162 130 39 12 146 14 146 3z m244 -58 c84 -22 202 -85 268 -144 96 -86
150 -175 118 -195 -5 -3 -17 9 -26 27 -26 51 -113 137 -184 183 -96 62 -191
97 -280 103 -52 3 -79 10 -87 21 -12 14 -12 14 -7 -1 4 -12 1 -18 -8 -18 -7 0
-14 9 -14 20 0 18 7 20 79 20 44 0 107 -7 141 -16z m-234 -14 c0 -11 -2 -20
-4 -20 -2 0 -6 9 -9 20 -3 11 -1 20 4 20 5 0 9 -9 9 -20z m-30 -10 c0 -5 -2
-10 -4 -10 -3 0 -8 5 -11 10 -3 6 -1 10 4 10 6 0 11 -4 11 -10z m282 -44 c62
-22 153 -71 188 -102 73 -63 122 -122 114 -135 -4 -8 -3 -9 4 -5 6 3 16 -3 22
-15 10 -17 7 -27 -15 -59 -34 -50 -116 -106 -178 -122 l-49 -13 -30 34 -30 33
51 29 c28 16 57 38 63 49 9 13 24 20 45 20 43 0 61 31 38 66 -8 13 -24 24 -35
24 -25 0 -51 -38 -44 -65 7 -29 -62 -91 -112 -101 -68 -13 -131 41 -164 139
-9 29 -9 42 -1 50 15 15 14 50 -1 65 -18 18 -46 14 -58 -7 -14 -27 -13 -29 13
-54 13 -12 31 -44 41 -71 10 -26 31 -63 47 -81 16 -18 29 -35 29 -38 0 -10
-72 -16 -94 -7 -32 12 -94 107 -117 179 -21 68 -25 145 -9 185 9 26 11 26 112
26 82 0 116 -5 170 -24z m-315 -84 c3 -103 6 -122 19 -122 7 0 16 -18 20 -45
4 -28 11 -45 20 -45 8 0 14 -5 14 -10 0 -21 -111 18 -147 52 -13 12 -23 32
-23 44 0 38 70 184 88 184 4 0 8 -26 9 -58z m688 -316 c48 -48 75 -117 75
-192 0 -58 -31 -154 -69 -213 -54 -83 -57 -83 -77 6 -15 71 -21 81 -63 118
-70 62 -102 96 -133 144 -33 53 -35 71 -8 71 37 0 127 41 166 75 21 19 45 34
52 35 7 0 32 -20 57 -44z m-451 12 c-6 -10 -4 -10 7 -2 15 12 89 15 89 4 0 -4
12 -20 28 -35 l27 -28 -56 5 c-30 2 -77 15 -104 28 -47 23 -48 25 -25 31 38
11 42 10 34 -3z m111 -90 c6 -5 10 -67 10 -143 l0 -134 -27 26 c-16 15 -28 23
-28 18 0 -4 -14 6 -30 24 -17 17 -35 31 -40 31 -6 0 -10 4 -10 8 0 5 -8 17
-18 28 -10 10 -24 34 -32 53 -13 32 -12 35 5 45 10 6 32 23 49 38 27 24 37 27
71 22 22 -3 45 -10 50 -16z m127 -223 c31 -44 70 -108 87 -143 27 -54 29 -63
16 -69 -17 -6 -186 5 -194 13 -2 2 -6 84 -8 181 l-4 178 23 -40 c13 -22 49
-76 80 -120z m-330 -41 c4 -44 11 -101 16 -128 7 -35 6 -59 -2 -84 l-12 -34
-32 32 c-58 57 -67 85 -67 195 0 65 5 108 13 123 l13 23 32 -24 c30 -23 33
-30 39 -103z m318 115 c0 -5 17 -36 38 -67 39 -57 71 -112 58 -101 -8 7 -116
171 -116 176 0 2 5 3 10 3 6 0 10 -5 10 -11z m122 -107 c9 -24 9 -44 0 -38 -5
3 -28 33 -52 68 l-44 63 44 -38 c25 -21 48 -46 52 -55z m-266 -59 c22 -14 27
-14 36 -2 8 11 9 10 4 -4 -3 -10 -6 -25 -6 -33 0 -8 -5 -14 -11 -14 -5 0 -8 4
-5 9 3 5 -7 17 -22 27 -37 24 -152 135 -152 147 0 5 29 -18 65 -52 36 -34 77
-69 91 -78z m-66 -4 c0 -3 -11 -16 -24 -29 -23 -20 -26 -21 -40 -7 -18 18 -21
37 -6 37 6 0 10 7 10 15 0 9 -6 12 -15 9 -10 -4 -15 0 -15 11 0 9 5 13 10 10
6 -3 10 1 10 9 0 9 -4 16 -10 16 -5 0 -10 7 -10 16 0 10 17 -3 45 -33 24 -26
44 -51 45 -54z m1871 -6 c-5 -10 -17 -27 -26 -38 -16 -19 -17 -19 -3 5 26 46
29 50 34 50 3 0 0 -8 -5 -17z m-11 -157 c-22 -69 -45 -128 -50 -131 -6 -4 -10
-14 -10 -24 0 -10 -6 -24 -14 -31 -8 -6 -12 -18 -9 -26 19 -50 -52 34 -86 103
-14 28 -14 33 3 33 22 0 126 100 166 158 19 28 36 49 38 48 2 -2 -15 -60 -38
-130z m-1740 94 c0 -11 -7 -20 -15 -20 -9 0 -12 -6 -8 -16 5 -13 2 -15 -15 -9
-12 3 -22 3 -22 -2 0 -5 -23 -26 -51 -47 -47 -35 -50 -36 -44 -14 13 43 41 73
95 100 30 15 56 28 58 28 1 0 2 -9 2 -20z m-180 0 c0 -5 -2 -10 -4 -10 -3 0
-8 5 -11 10 -3 6 -1 10 4 10 6 0 11 -4 11 -10z m1870 -33 c0 -2 -17 -19 -37
-38 l-38 -34 34 38 c33 34 41 42 41 34z m-1710 -81 c0 -2 -9 -6 -20 -9 -11 -3
-18 -1 -14 4 5 9 34 13 34 5z m-165 -16 c3 -6 -1 -7 -9 -4 -18 7 -21 14 -7 14
6 0 13 -4 16 -10z m205 -13 c0 -9 -17 -13 -52 -15 -69 -2 -42 23 30 27 12 0
22 -5 22 -12z m50 3 c-20 -13 -40 -13 -40 0 0 6 12 10 28 10 21 0 24 -2 12
-10z m-160 -4 c0 -7 -66 -46 -76 -46 -5 0 9 12 31 25 42 26 45 28 45 21z
m-153 -60 c2 -2 -14 -6 -37 -10 -26 -4 -51 -1 -72 9 -32 14 -31 14 36 10 38
-3 71 -7 73 -9z m99 -84 c6 -4 26 -36 44 -72 40 -79 95 -162 167 -253 38 -48
58 -84 69 -124 8 -31 13 -60 12 -65 -2 -5 -19 15 -38 44 -26 39 -50 61 -92 83
-107 57 -142 109 -172 257 -24 116 -21 151 10 130z m1810 -444 c-9 -12 -16
-19 -16 -15 0 11 24 47 28 42 2 -2 -3 -14 -12 -27z m-1550 -55 c-7 -7 -26 7
-26 19 0 6 6 6 15 -2 9 -7 13 -15 11 -17z m2005 -159 c35 -37 19 -36 -24 1
-26 22 -32 32 -19 28 11 -3 30 -16 43 -29z m-21 -19 c16 -17 21 -33 18 -61 -2
-20 -9 -39 -16 -42 -9 -3 -12 3 -10 14 2 12 -2 18 -10 16 -8 -1 -11 2 -7 8 9
14 -25 41 -42 35 -7 -2 -13 3 -13 12 0 13 -2 13 -16 2 -14 -12 -16 -11 -13 6
5 23 43 45 69 38 10 -3 28 -15 40 -28z m-2383 -45 c5 -23 6 -22 18 15 13 40
13 40 14 9 1 -21 -8 -42 -29 -65 -16 -19 -30 -37 -30 -41 0 -5 -5 -8 -11 -8
-13 0 -5 79 14 125 10 25 12 27 15 10 1 -11 5 -31 9 -45z m649 2 c1 -9 5 -28
9 -42 4 -17 0 -13 -15 13 -11 21 -18 42 -14 48 8 13 17 4 20 -19z m1653 -27
c29 -14 47 -50 31 -60 -5 -3 -14 3 -19 14 -6 10 -25 24 -43 30 -26 9 -30 14
-18 21 19 12 16 13 49 -5z m-809 -675 c29 -29 27 -84 -5 -115 -32 -33 -59 -34
-49 -2 4 12 7 29 8 37 1 8 6 19 11 23 6 6 5 10 -4 14 -10 4 -11 7 -1 13 8 5
10 15 6 26 -5 14 -9 15 -15 5 -7 -10 -10 -9 -14 3 -9 24 38 21 63 -4z m-82
-30 c3 -38 -18 -77 -37 -66 -8 5 -8 13 0 28 6 11 8 34 5 50 -5 24 -3 29 12 26
11 -2 18 -14 20 -38z m142 -42 c0 -9 -4 -20 -10 -23 -6 -4 -10 9 -10 32 0 28
3 34 10 23 5 -8 10 -23 10 -32z m-888 -53 c10 -19 10 -19 -8 -3 -10 9 -27 32
-37 50 l-18 33 26 -30 c14 -16 31 -39 37 -50z"/>
<path d="M1515 3970 c3 -5 8 -10 11 -10 2 0 4 5 4 10 0 6 -5 10 -11 10 -5 0
-7 -4 -4 -10z"/>
<path d="M1500 3940 c0 -5 5 -10 10 -10 6 0 10 5 10 10 0 6 -4 10 -10 10 -5 0
-10 -4 -10 -10z"/>
<path d="M1485 3910 c4 -6 11 -8 16 -5 14 9 11 15 -7 15 -8 0 -12 -5 -9 -10z"/>
<path d="M1897 3483 c-44 -47 -70 -119 -75 -211 -8 -148 32 -279 125 -410 102
-143 147 -180 371 -304 70 -39 146 -86 170 -105 l42 -34 0 63 c0 78 -18 147
-60 229 -48 96 -100 160 -250 309 -201 201 -265 298 -277 425 -3 36 -9 65 -13
65 -3 0 -18 -12 -33 -27z m30 -325 c-3 -8 -6 -5 -6 6 -1 11 2 17 5 13 3 -3 4
-12 1 -19z m72 -185 c12 -24 19 -43 16 -43 -13 0 -86 176 -84 204 0 6 11 -18
23 -54 13 -36 33 -84 45 -107z m130 -173 c36 -36 82 -78 101 -94 25 -20 22
-18 -12 5 -56 38 -169 153 -187 189 -10 20 -8 19 10 -5 13 -16 52 -59 88 -95z
m226 -175 c33 -24 71 -56 85 -71 17 -20 12 -17 -17 8 -23 21 -67 54 -98 74
-30 20 -55 39 -55 41 0 6 17 -5 85 -52z"/>
<path d="M2890 3455 c0 -8 -20 -37 -44 -64 -60 -68 -64 -102 -32 -316 35 -241
39 -285 28 -332 -22 -99 29 -4 87 161 46 130 63 211 64 311 1 82 -1 94 -27
140 -16 28 -36 64 -45 82 -17 34 -31 43 -31 18z"/>
<path d="M2520 2992 c-62 -63 -65 -190 -5 -259 26 -31 43 -27 26 5 -22 41 -14
52 37 52 40 0 53 5 77 30 50 52 36 154 -27 186 -42 22 -76 17 -108 -14z"/>
<path d="M3006 2820 c-34 -41 -36 -102 -4 -125 20 -13 21 -18 10 -36 -24 -39
-3 -32 42 12 52 52 68 106 45 148 -22 39 -60 39 -93 1z"/>
<path d="M2760 2411 c41 -4 82 -11 90 -15 12 -7 13 -7 2 5 -8 9 -39 14 -90 15
l-77 2 75 -7z"/>
<path d="M2375 2179 c-20 -31 168 -160 255 -175 29 -5 25 -1 -26 24 -34 17
-92 59 -131 96 -71 66 -86 75 -98 55z"/>
<path d="M3055 2070 c-3 -6 1 -7 9 -4 18 7 21 14 7 14 -6 0 -13 -4 -16 -10z"/>
<path d="M2275 2010 c-11 -18 14 -38 71 -60 63 -23 203 -41 242 -31 23 6 18 9
-29 13 -30 4 -104 25 -164 47 -125 47 -112 44 -120 31z"/>
<path d="M2535 1843 c-32 -12 -66 -14 -162 -9 -122 6 -163 -3 -108 -24 59 -22
205 -7 289 31 50 21 36 23 -19 2z"/>
<path d="M2681 1504 c-35 -14 -100 -31 -145 -38 -57 -10 -71 -15 -46 -16 39
-3 35 -3 108 16 29 8 61 14 72 14 10 0 20 5 22 11 2 6 16 12 31 12 15 1 27 8
27 15 0 6 -1 12 -2 11 -2 0 -32 -11 -67 -25z"/>
<path d="M1985 4090 c-3 -5 -2 -10 3 -10 5 0 13 -10 19 -22 6 -15 12 -18 17
-10 4 7 2 12 -3 12 -6 0 -11 9 -11 20 0 21 -15 27 -25 10z"/>
<path d="M1945 3990 c-3 -5 -1 -10 4 -10 6 0 11 5 11 10 0 6 -2 10 -4 10 -3 0
-8 -4 -11 -10z"/>
<path d="M1581 954 c0 -11 3 -14 6 -6 3 7 2 16 -1 19 -3 4 -6 -2 -5 -13z"/>
<path d="M3291 912 c-8 -19 -31 -40 -62 -56 -27 -15 -49 -29 -49 -31 0 -9 49
4 74 20 26 17 63 81 53 91 -2 3 -10 -8 -16 -24z"/>
<path d="M1571 914 c0 -11 3 -14 6 -6 3 7 2 16 -1 19 -3 4 -6 -2 -5 -13z"/>
</g>
</svg>
